# xmcd
#
# Track frame offsets: 
#        150
#        19857
#        33808
#        53009
#        68833
#        85184
#        103227
#        125320
#        143081
#        163637
#        179276
#
# Disc length: 2660 seconds
#
# Revision: 0
# Processed by: cddbd v1.5.2PL0 Copyright (c) Steve Scherf et al.
# Submitted via: ExactAudioCopy v0.90b4
#
DISCID=890a620b
DTITLE=Kiko Rodriguez - Naci De Nuevo
DYEAR=2008
DGENRE=Latin
TTITLE0=Quede Solo En La Pobreza
TTITLE1=Insensible A Ti
TTITLE2=Los Botones
TTITLE3=Naci De Nuevo
TTITLE4=Amor Por Dinero
TTITLE5=Duele
TTITLE6=No Podrán Separarnos
TTITLE7=Mia Será
TTITLE8=Porque Me Mentiste
TTITLE9=Serenata De Amor
TTITLE10=Hay Amor
EXTD=
EXTT0=
EXTT1=
EXTT2=
EXTT3=
EXTT4=
EXTT5=
EXTT6=
EXTT7=
EXTT8=
EXTT9=
EXTT10=
PLAYORDER=
